<svg id="Group_233" data-name="Group 233" xmlns="http://www.w3.org/2000/svg" xmlns:xlink="http://www.w3.org/1999/xlink" width="47.04" height="48.172" viewBox="0 0 47.04 48.172">
  <defs>
    <clipPath id="clip-path">
      <rect id="Rectangle_97" data-name="Rectangle 97" width="47.04" height="48.172" fill="#0e3746"/>
    </clipPath>
  </defs>
  <g id="Group_232" data-name="Group 232" transform="translate(0 0)" clip-path="url(#clip-path)">
    <path id="Path_3608" data-name="Path 3608" d="M456.81,455.381a2.413,2.413,0,1,1-2.413-2.413,2.413,2.413,0,0,1,2.413,2.413Zm9.8-2.413a2.413,2.413,0,1,0,2.413,2.413,2.413,2.413,0,0,0-2.413-2.413Zm10.308,9.824v-.275a21.228,21.228,0,0,1-.966,2.307,14.382,14.382,0,0,0,.4,1.813,12.01,12.01,0,0,0,5.71,3.992,6.551,6.551,0,0,1-3.493.435,10.425,10.425,0,0,0,4.883,3.421c-5.161,4.652-13.665,4.755-19.609,1.143a11.015,11.015,0,0,1-6.666,0c-5.944,3.613-14.448,3.509-19.609-1.143a10.415,10.415,0,0,0,4.946-3.506,6.606,6.606,0,0,1-2.8-.5,12.47,12.47,0,0,0,4.579-2.709,14.378,14.378,0,0,0,.771-2.949,21.289,21.289,0,0,1-.966-2.306v.275h-2.918A4.169,4.169,0,0,1,437,458.622v-4.586a4.168,4.168,0,0,1,2.186-3.668c.044-6.511,1.941-11.6,5.649-15.113,3.677-3.487,8.948-5.255,15.666-5.255s11.989,1.768,15.666,5.255c3.707,3.516,5.605,8.6,5.649,15.113A4.168,4.168,0,0,1,484,454.036v4.586a4.169,4.169,0,0,1-4.169,4.169Zm-1.736-7.4c0-1.073-.055-2.081-.136-3.057-1.881-1.721-5.322-3.019-9.662-3.476a5.232,5.232,0,0,1,1.6,2.615c-2.523-1.844-7.811-2.415-9.568-4.392h0c-2.8-1.851-3.529-4.5-3.553-3.4-.113,5.262-3.842,9.364-7.984,9.942-.026.579-.048,1.163-.048,1.772a18.877,18.877,0,0,0,.981,6.078c2.326,2.806,6.168,3.6,9.568,3.809a4.346,4.346,0,0,1,3.7-1.706c2.236,0,4.049,1.287,4.049,2.874s-1.813,2.874-4.049,2.874a4.255,4.255,0,0,1-3.772-1.836,19.934,19.934,0,0,1-7.317-1.643c3.275,4.826,8.35,7.379,11.521,7.379,4.981,0,14.676-6.293,14.676-17.828Zm2.524-5.53h1.6c-.265-11.363-6.751-17.365-18.8-17.365s-18.539,6-18.8,17.365h1.6a20.024,20.024,0,0,1,3.708-9.4c3-3.859,7.539-5.816,13.493-5.816s10.493,1.957,13.492,5.816a20.022,20.022,0,0,1,3.708,9.4Zm0,0" transform="translate(-437 -430)" fill="#0e3746"/>
  </g>
</svg>
