<svg xmlns="http://www.w3.org/2000/svg" width="22.776" height="22.715" viewBox="0 0 22.776 22.715">
  <g id="Live_update" data-name="Live update" transform="translate(-705.555 -705.176)">
    <g id="Icon">
      <path id="Path_3595" data-name="Path 3595" d="M705.555,721.856c.161-.771.265-1.56.493-2.31a10.389,10.389,0,0,1,8.985-7.259c.293-.025.586-.046.88-.05.5-.005.724.219.725.719q0,4.382,0,8.764v.391H725.6c.731,0,.923.2.9.925a10.465,10.465,0,0,1-8.657,10c-.318.059-.64.1-.96.144h-1.705c-.239-.038-.48-.071-.718-.114a10.3,10.3,0,0,1-8.4-7.17,18.379,18.379,0,0,1-.5-2.338Zm9.857-8.329a9.228,9.228,0,1,0,9.8,9.819h-6.145c-.995,0-1.989,0-2.984,0a.6.6,0,0,1-.661-.633c-.007-.111-.005-.223-.005-.335q0-4.232,0-8.464Z" transform="translate(0 -5.291)" fill="#0e3746" fill-rule="evenodd"/>
      <path id="Path_3596" data-name="Path 3596" d="M763.256,715.833a.832.832,0,0,1-.81.418q-4.714-.009-9.428,0c-.665,0-.854-.19-.854-.844,0-3.122,0-6.245-.006-9.367a.926.926,0,0,1,.38-.86h1.1a2.079,2.079,0,0,0,.236.052,10.409,10.409,0,0,1,8.959,7.462c.2.686.287,1.4.427,2.108Zm-1.276-.841a9.093,9.093,0,0,0-8.576-8.521v8.521Z" transform="translate(-34.925 0)" fill="#0e3746" fill-rule="evenodd"/>
      <path id="Path_3598" data-name="Path 3598" d="M758.048,705.176h9.622S758.126,705.194,758.048,705.176Z" transform="translate(-39.339 0)" fill="#0e3746" fill-rule="evenodd"/>
      <path id="Path_3600" data-name="Path 3600" d="M757.129,718.865v0Z" transform="translate(-38.65 -3.873)" fill="#0e3746" fill-rule="evenodd"/>
    </g>
  </g>
</svg>
