<svg xmlns="http://www.w3.org/2000/svg" width="22" height="22" viewBox="0 0 22 22">
  <g id="Settings" transform="translate(-494 -494)">
    <g id="Icon">
      <path id="Path_3588" data-name="Path 3588" d="M633.767,627.609a6.158,6.158,0,1,0,6.158,6.158,6.165,6.165,0,0,0-6.158-6.158Zm0,10.777a4.618,4.618,0,1,1,4.619-4.619,4.624,4.624,0,0,1-4.619,4.619Zm0,0" transform="translate(-128.767 -128.767)" fill="#0e3746"/>
      <path id="Path_3589" data-name="Path 3589" d="M515.482,502.5l-1.691-.368a9.216,9.216,0,0,0-.544-1.312l.936-1.456a.658.658,0,0,0-.088-.82l-2.634-2.634a.658.658,0,0,0-.82-.088l-1.456.936a9.2,9.2,0,0,0-1.312-.544l-.368-1.691a.657.657,0,0,0-.642-.518h-3.725a.657.657,0,0,0-.642.518l-.368,1.691a9.2,9.2,0,0,0-1.312.544l-1.456-.936a.658.658,0,0,0-.82.088l-2.634,2.634a.658.658,0,0,0-.088.82l.936,1.456a9.2,9.2,0,0,0-.544,1.312l-1.691.368a.658.658,0,0,0-.518.642v3.725a.658.658,0,0,0,.518.642l1.691.368a9.2,9.2,0,0,0,.544,1.312l-.936,1.456a.658.658,0,0,0,.088.82l2.634,2.634a.658.658,0,0,0,.82.088l1.456-.936a9.216,9.216,0,0,0,1.312.544l.368,1.691a.657.657,0,0,0,.642.518h3.725a.657.657,0,0,0,.642-.518l.368-1.691a9.217,9.217,0,0,0,1.312-.544l1.456.936a.657.657,0,0,0,.82-.088l2.634-2.634a.658.658,0,0,0,.088-.82l-.936-1.456a9.217,9.217,0,0,0,.544-1.312l1.691-.368a.657.657,0,0,0,.518-.642v-3.725a.657.657,0,0,0-.518-.642Zm-.8,3.838-1.55.337a.657.657,0,0,0-.494.466,7.893,7.893,0,0,1-.728,1.757.657.657,0,0,0,.019.679l.858,1.335-1.885,1.885-1.336-.858a.657.657,0,0,0-.678-.019,7.9,7.9,0,0,1-1.757.728.658.658,0,0,0-.466.494l-.337,1.55h-2.665l-.337-1.55a.658.658,0,0,0-.466-.494,7.892,7.892,0,0,1-1.757-.728.658.658,0,0,0-.679.019l-1.335.858-1.885-1.885.858-1.335a.657.657,0,0,0,.02-.679,7.9,7.9,0,0,1-.728-1.757.657.657,0,0,0-.493-.466l-1.551-.337v-2.665l1.55-.337a.658.658,0,0,0,.494-.466,7.888,7.888,0,0,1,.728-1.757.658.658,0,0,0-.02-.679l-.859-1.335,1.885-1.885,1.336.859a.657.657,0,0,0,.678.02,7.9,7.9,0,0,1,1.757-.728.658.658,0,0,0,.466-.494l.337-1.55h2.665l.337,1.55a.657.657,0,0,0,.466.494,7.889,7.889,0,0,1,1.757.728.658.658,0,0,0,.679-.02l1.335-.859,1.885,1.885-.858,1.335a.657.657,0,0,0-.02.679,7.887,7.887,0,0,1,.728,1.757.658.658,0,0,0,.493.466l1.551.337Zm0,0" transform="translate(0 0)" fill="#0e3746"/>
    </g>
  </g>
</svg>
