<svg xmlns="http://www.w3.org/2000/svg" xmlns:xlink="http://www.w3.org/1999/xlink" width="85.356" height="79.629" viewBox="0 0 85.356 79.629">
  <defs>
    <clipPath id="clip-path">
      <path id="Path_3812" data-name="Path 3812" d="M680.764,154.139a24.366,24.366,0,0,0,14.59-23.607c-.707-9.856-1.785-18.023-7.065-26.375-5.152-8.15-7.673-14.438-12.392-17.406-3.628-2.282-13.073-2.981-20.253-2.2-4.262.462-4.959-.525-12.78,2.2a54.593,54.593,0,0,0-9.509,4.444,52.907,52.907,0,0,0-13.433,10.528,35.836,35.836,0,0,0-6.994,33.718,66.032,66.032,0,0,0,4.593,10.329c2.228,4.287,4.6,8.654,8.295,11.77,4.212,3.552,9.755,5.133,15.219,5.848a59.365,59.365,0,0,0,39.471-8.875" fill="none"/>
    </clipPath>
    <clipPath id="clip-path-2">
      <path id="Path_3797" data-name="Path 3797" d="M655.862,158.818a26.791,26.791,0,0,1,4.579-15.769s13.8,5.118,21.456-6.456c0,0,3.9-4.864,1.568-14.007,0,0-2.7-13.253-4.7-16.285s-13.916-9.956-25.768.473-9.263,43.846-8.288,45.921C644.707,152.7,654.373,161.3,655.862,158.818Z" fill="none"/>
    </clipPath>
    <radialGradient id="radial-gradient" cx="0.5" cy="0.5" r="1.639" gradientTransform="translate(-2.904 0.846) scale(0.233 0.563)" gradientUnits="objectBoundingBox">
      <stop offset="0" stop-color="#b34130" stop-opacity="0.937"/>
      <stop offset="0.637" stop-color="#ffbfad" stop-opacity="0"/>
    </radialGradient>
  </defs>
  <g id="Icon" transform="translate(-398.369 -83.243)">
    <g id="Group_323" data-name="Group 323" transform="translate(-212.979 -1)">
      <g id="Group_322" data-name="Group 322">
        <g id="Group_320" data-name="Group 320">
          <path id="Path_3782" data-name="Path 3782" d="M680.764,154.139a23.709,23.709,0,0,0-3.22-44.89c-5.4-1.373-11.43-.9-16.149-3.871-3.629-2.282-5.817-6.2-8.271-9.717s-5.711-6.988-9.969-7.484c-3.458-.4-6.8,1.259-9.8,3.018a52.907,52.907,0,0,0-13.433,10.528,35.836,35.836,0,0,0-6.994,33.718,66.032,66.032,0,0,0,4.593,10.329c2.228,4.287,4.6,8.654,8.295,11.77,4.212,3.552,9.755,5.133,15.219,5.848a59.365,59.365,0,0,0,39.471-8.875" fill="#fff"/>
          <g id="Group_319" data-name="Group 319">
            <g id="Group_318" data-name="Group 318" clip-path="url(#clip-path)">
              <g id="Group_317" data-name="Group 317">
                <g id="Group_308" data-name="Group 308">
                  <path id="Path_3783" data-name="Path 3783" d="M648.713,162.739s2.822,2.926,8.6,1.794,6.757.24,8.484-2.617,1.551-8.246-3.3-12.974-13.033-1.662-17.693,1.515S648.713,162.739,648.713,162.739Z" fill="#e89e0a"/>
                  <path id="Path_3784" data-name="Path 3784" d="M655.862,158.818a27.458,27.458,0,0,1,2.364-12.329s1.629,4.766,4.07,7.322S659.657,160.053,655.862,158.818Z" fill="#2d1f04"/>
                  <g id="Group_307" data-name="Group 307">
                    <path id="Path_3785" data-name="Path 3785" d="M650.316,158.293a13.7,13.7,0,0,0-.88,1.914,4.975,4.975,0,0,0-.228.956c-.065.336-.057.683-.1,1.089a2.079,2.079,0,0,1-.513-1.074,2.427,2.427,0,0,1,.1-1.218,2.786,2.786,0,0,1,.622-1.034A2.274,2.274,0,0,1,650.316,158.293Z" fill="#a06600"/>
                    <path id="Path_3786" data-name="Path 3786" d="M664.972,162a22.391,22.391,0,0,0-1.1-2,6.675,6.675,0,0,0-.657-.852c-.235-.287-.527-.515-.832-.823a2.277,2.277,0,0,1,1.218.346,2.875,2.875,0,0,1,.923.9,3.329,3.329,0,0,1,.48,1.178A2.66,2.66,0,0,1,664.972,162Z" fill="#a06600"/>
                    <path id="Path_3787" data-name="Path 3787" d="M666.037,157.943a11.762,11.762,0,0,0-1.136-1.089,2.567,2.567,0,0,0-.588-.347c-.222-.114-.478-.171-.786-.293a1.375,1.375,0,0,1,.9-.311,1.541,1.541,0,0,1,.947.327,1.821,1.821,0,0,1,.586.779A1.545,1.545,0,0,1,666.037,157.943Z" fill="#a06600"/>
                    <path id="Path_3788" data-name="Path 3788" d="M652.284,159.23c-.025.409-.04.772-.04,1.132s.005.706.031,1.054.056.7.112,1.054c.039.363.111.725.133,1.14a2.774,2.774,0,0,1-.722-.964,3.354,3.354,0,0,1-.3-1.176,3.248,3.248,0,0,1,.144-1.212A2.245,2.245,0,0,1,652.284,159.23Z" fill="#a06600"/>
                    <path id="Path_3789" data-name="Path 3789" d="M654.792,159.878a10.975,10.975,0,0,1,.456,1.986l.151.952.188,1.009a1.992,1.992,0,0,1-.765-.8,3.293,3.293,0,0,1-.345-1.037,3.749,3.749,0,0,1-.016-1.073A2.8,2.8,0,0,1,654.792,159.878Z" fill="#a06600"/>
                    <path id="Path_3790" data-name="Path 3790" d="M657.482,159.706a2.956,2.956,0,0,1,.656.817,4.3,4.3,0,0,1,.391.943,3.918,3.918,0,0,1,.143,1.021,2.375,2.375,0,0,1-.218,1.037,8.774,8.774,0,0,1-.387-.937c-.11-.3-.208-.6-.291-.913a9.476,9.476,0,0,1-.214-.945A5.165,5.165,0,0,1,657.482,159.706Z" fill="#a06600"/>
                    <path id="Path_3791" data-name="Path 3791" d="M660.28,159.408a2.214,2.214,0,0,1,.75.707,3.458,3.458,0,0,1,.439.907,3.036,3.036,0,0,1-.018,2,5.507,5.507,0,0,1-.426-.9c-.109-.294-.215-.58-.3-.872s-.175-.582-.25-.883S660.332,159.761,660.28,159.408Z" fill="#a06600"/>
                    <path id="Path_3792" data-name="Path 3792" d="M659.891,149.329a.784.784,0,0,1,.132-.588,1.046,1.046,0,0,1,.439-.371.959.959,0,0,1,1.1.174,2.8,2.8,0,0,1-.422.34,2.479,2.479,0,0,1-.352.2,2.991,2.991,0,0,1-.376.134C660.266,149.253,660.113,149.289,659.891,149.329Z" fill="#a06600"/>
                    <path id="Path_3793" data-name="Path 3793" d="M660.661,150.709a.98.98,0,0,1,.322-.662,1.494,1.494,0,0,1,.623-.353,1.568,1.568,0,0,1,.7-.039,1.3,1.3,0,0,1,.65.306,3.078,3.078,0,0,1-.6.306,5.256,5.256,0,0,1-.532.177c-.172.051-.343.09-.527.131Z" fill="#a06600"/>
                    <path id="Path_3794" data-name="Path 3794" d="M661.575,152.275a1.382,1.382,0,0,1,.443-.673,1.815,1.815,0,0,1,.7-.374,1.472,1.472,0,0,1,1.516.37c-.276.1-.494.142-.7.212l-.6.169c-.2.056-.4.109-.62.162A6.6,6.6,0,0,1,661.575,152.275Z" fill="#a06600"/>
                    <path id="Path_3795" data-name="Path 3795" d="M662.826,153.872a.918.918,0,0,1,.381-.567,1.4,1.4,0,0,1,.6-.244,1.445,1.445,0,0,1,.634.044,1.191,1.191,0,0,1,.56.358,2.414,2.414,0,0,1-.573.256,3.211,3.211,0,0,1-.5.113,3.978,3.978,0,0,1-.5.044C663.251,153.88,663.072,153.876,662.826,153.872Z" fill="#a06600"/>
                  </g>
                </g>
                <path id="Path_3796" data-name="Path 3796" d="M655.862,158.818a26.791,26.791,0,0,1,4.579-15.769s13.8,5.118,21.456-6.456c0,0,3.9-4.864,1.568-14.007,0,0-2.7-13.253-4.7-16.285s-13.916-9.956-25.768.473-9.263,43.846-8.288,45.921C644.707,152.7,654.373,161.3,655.862,158.818Z" fill="#ffcdbd"/>
                <g id="Group_311" data-name="Group 311">
                  <g id="Group_310" data-name="Group 310" clip-path="url(#clip-path-2)">
                    <g id="Group_309" data-name="Group 309">
                      <ellipse id="Ellipse_11" data-name="Ellipse 11" cx="32.125" cy="7.5" rx="32.125" ry="7.5" transform="translate(638.468 105.424)" opacity="0.6" fill="url(#radial-gradient)"/>
                    </g>
                  </g>
                </g>
                <g id="Group_312" data-name="Group 312">
                  <path id="Path_3798" data-name="Path 3798" d="M626.449,183.12s-10.861-2.336-15.883-9.793,16.635-77.58,41.576-84.812,29.8,10.117,29.8,10.117,3.509,10.282,6.344,11.773c0,0-1.78,1.338-7.337,1.425l-1.083-3.818-.648,4.036a42.689,42.689,0,0,1-17.748-.462s.748-5.39.218-8.353c0,0-2.157,8.626-3.519,9.415l-3.591-.082s-12.209,27.447-6.23,46.338c0,0,3.679,9.851,7.266,14.082C655.617,172.986,643.542,183.638,626.449,183.12Z" fill="#0b1838"/>
                  <path id="Path_3799" data-name="Path 3799" d="M614.548,172.314c.276-2.825.718-5.63,1.187-8.431q.747-4.192,1.693-8.348a161.555,161.555,0,0,1,4.69-16.384,122.609,122.609,0,0,1,6.722-15.667q1.993-3.772,4.3-7.361a75.357,75.357,0,0,1,5.107-6.814c-1.7,2.271-3.312,4.6-4.784,7.019s-2.836,4.9-4.094,7.429c-1.229,2.546-2.438,5.1-3.514,7.719s-2.083,5.258-3.006,7.932q-1.407,4-2.616,8.073c-.81,2.712-1.52,5.453-2.228,8.194s-1.328,5.506-1.9,8.28Q615.219,168.111,614.548,172.314Z" fill="#1e3f82"/>
                  <path id="Path_3800" data-name="Path 3800" d="M625.181,155.472a68.228,68.228,0,0,1,1.432-9.033,81.477,81.477,0,0,1,2.5-8.813,64.692,64.692,0,0,1,3.671-8.405,41.686,41.686,0,0,1,5.2-7.532c-.831,1.282-1.763,2.48-2.48,3.824-.811,1.28-1.462,2.652-2.173,3.986l-.953,2.062c-.154.345-.326.682-.467,1.034l-.427,1.051c-.276.706-.6,1.39-.847,2.107l-.783,2.132c-1,2.859-1.871,5.764-2.649,8.7-.384,1.468-.752,2.942-1.084,4.424C625.761,152.484,625.469,153.976,625.181,155.472Z" fill="#1e3f82"/>
                  <path id="Path_3801" data-name="Path 3801" d="M668.885,90.616a11.532,11.532,0,0,1,5.771,2.577,6.9,6.9,0,0,1,.6.529,6.64,6.64,0,0,1,.568.57l.536.6.485.642a6.636,6.636,0,0,1,.45.666c.141.228.291.453.423.683.259.465.524.925.772,1.395.987,1.882,1.894,3.8,2.78,5.723.442.962.887,1.923,1.376,2.859a10.6,10.6,0,0,0,1.749,2.625,9.932,9.932,0,0,1-1.917-2.533c-.526-.924-1-1.873-1.479-2.82-.943-1.9-1.844-3.813-2.854-5.671-.241-.47-.5-.93-.751-1.395-.128-.23-.272-.447-.406-.672a6.459,6.459,0,0,0-.432-.653,13.027,13.027,0,0,0-2.1-2.321,12.166,12.166,0,0,0-2.6-1.752A11.485,11.485,0,0,0,668.885,90.616Z" fill="#1e3f82"/>
                  <path id="Path_3802" data-name="Path 3802" d="M663.015,92.087a7.977,7.977,0,0,0-2.268,1.27,9.4,9.4,0,0,0-1.824,1.833,12.629,12.629,0,0,0-2.215,4.642,34.051,34.051,0,0,0-.762,5.16l-.307,2.61-.185,1.3c-.034.217-.067.433-.109.65l-.037.161c-.013.03,0,.048-.042.09-.046,0-.03-.039-.036-.047l0-.042c0-.111.006-.219.014-.329,0,.11.005.219.015.327l.006.04c0,.014.016.025-.008.016-.007,0,.009-.042.01-.064l.022-.162c.026-.216.046-.434.064-.652l.1-1.309.2-2.618c.03-.437.062-.873.1-1.309s.069-.872.13-1.311.093-.879.178-1.313l.276-1.3A12.436,12.436,0,0,1,658.69,95,8.6,8.6,0,0,1,663.015,92.087Z" fill="#1e3f82"/>
                  <path id="Path_3803" data-name="Path 3803" d="M667.731,93.315a10.1,10.1,0,0,1,1.983,3.418,25.991,25.991,0,0,1,1.125,3.809c.154.644.26,1.3.386,1.945.1.653.207,1.307.289,1.959l.262,1.958c.073.655.159,1.308.221,1.966-.149-.642-.273-1.289-.411-1.935l-.369-1.943-.356-1.939c-.136-.642-.244-1.29-.4-1.927a37.093,37.093,0,0,0-1.025-3.79,18.108,18.108,0,0,0-.715-1.828A7.364,7.364,0,0,0,667.731,93.315Z" fill="#1e3f82"/>
                  <path id="Path_3804" data-name="Path 3804" d="M644.748,126.358c-.725,2.523-1.293,5.078-1.788,7.641a73.7,73.7,0,0,0-1.058,7.743,51.751,51.751,0,0,0-.072,7.795c.095,1.3.256,2.588.473,3.874a35.314,35.314,0,0,0,.9,3.816,26.768,26.768,0,0,1-1.273-3.736,32.309,32.309,0,0,1-.706-3.9,39.024,39.024,0,0,1-.244-3.956q-.006-1.981.145-3.959c.117-1.315.27-2.626.475-3.928s.461-2.6.768-3.877A47.776,47.776,0,0,1,644.748,126.358Z" fill="#1e3f82"/>
                </g>
                <g id="Group_313" data-name="Group 313">
                  <path id="Path_3805" data-name="Path 3805" d="M651.936,126.294s-5.735-2.15-6.18-7.513c0,0,.248-3.465,3.434-3.28a3.776,3.776,0,0,1,3.526,3.334Z" fill="#ffcdbd"/>
                  <path id="Path_3806" data-name="Path 3806" d="M650.627,118.081a2.347,2.347,0,0,0-1.112-.278.82.82,0,0,0-.674.466,3.968,3.968,0,0,0-.343.974,2.953,2.953,0,0,0-.047.988,4.367,4.367,0,0,0,.268,1,6.15,6.15,0,0,0,.515.961,4.875,4.875,0,0,0,.731.846,2.637,2.637,0,0,0,1.011.607,2,2,0,0,1-1.306-.113,3.831,3.831,0,0,1-1.131-.737,4.509,4.509,0,0,1-.824-1.089,4.109,4.109,0,0,1-.426-1.338,3.371,3.371,0,0,1,.144-1.441,3.587,3.587,0,0,1,.691-1.236c.093-.093.2-.177.3-.26a1.931,1.931,0,0,1,.373-.184,1.4,1.4,0,0,1,.8-.015A1.87,1.87,0,0,1,650.627,118.081Z" fill="#b26356"/>
                </g>
                <g id="Group_314" data-name="Group 314">
                  <path id="Path_3807" data-name="Path 3807" d="M662.119,123.716a2.853,2.853,0,0,1,.817-1.534,3.17,3.17,0,0,1,1.6-.873,3.087,3.087,0,0,1,1.818.152,1.634,1.634,0,0,1,.4.192c.127.076.25.156.369.238a3.73,3.73,0,0,1,.606.625c-.3-.007-.565-.067-.829-.1-.133-.008-.262-.02-.387-.035l-.184-.025-.185,0a4.883,4.883,0,0,0-1.364.1,5.191,5.191,0,0,0-1.3.463A15.627,15.627,0,0,0,662.119,123.716Z" fill="#0b1838"/>
                  <path id="Path_3808" data-name="Path 3808" d="M677.92,121.433a1.537,1.537,0,0,1,.863-.744,1.847,1.847,0,0,1,1.19-.023,1.793,1.793,0,0,1,.965.707,1.694,1.694,0,0,1,.244.52,1.744,1.744,0,0,1,.042.578,4.4,4.4,0,0,1-.5-.228c-.158-.058-.275-.147-.412-.192a5.166,5.166,0,0,0-.691-.268,5.542,5.542,0,0,0-.725-.183Z" fill="#0b1838"/>
                </g>
                <g id="Group_316" data-name="Group 316">
                  <g id="Group_315" data-name="Group 315">
                    <path id="Path_3809" data-name="Path 3809" d="M659.221,121.314s-.889.284-.563-.552a8.289,8.289,0,0,1,5.371-3.323c2.3-.145-.873,1.364-2.024,1.966A22.663,22.663,0,0,0,659.221,121.314Z" fill="#0b1838"/>
                    <path id="Path_3810" data-name="Path 3810" d="M681.433,118.447s.613-.02.3-.637a3.977,3.977,0,0,0-3.9-1.254c-1.515.554.735.907,1.556,1.081A10.619,10.619,0,0,1,681.433,118.447Z" fill="#0b1838"/>
                  </g>
                  <path id="Path_3811" data-name="Path 3811" d="M674.182,120.965s.023-1.444-.709-.152-1.918,3.863-1.876,5.125,1.151,4.243,2.714,2.96.984-2.9.541-4.421A25.367,25.367,0,0,1,674.182,120.965Z" fill="#ff9c85"/>
                </g>
              </g>
            </g>
          </g>
          <path id="Path_3813" data-name="Path 3813" d="M666.3,134.5a4.535,4.535,0,0,1,2.25-1.083c1,0,2.25,1.666,3.583,1.5s1.917-1.417,2.834-1.5,1.583,1.166,2.166,1.166" fill="none" stroke="#0b1838" stroke-miterlimit="10" stroke-width="1"/>
        </g>
        <g id="Group_321" data-name="Group 321">
          <path id="Path_3814" data-name="Path 3814" d="M696.7,111.967l-1.282-1.167c-.778-.709-1.595-1.379-2.414-2.048.349-.409.705-.809,1.041-1.233a26.4,26.4,0,0,0,1.694-2.355,26.223,26.223,0,0,0-2.56,1.366c-.823.489-1.622,1.007-2.409,1.537l-.851.574.8,1.013c.485.613,1.005,1.189,1.511,1.781-1.191.7-2.367,1.429-3.514,2.2l-1.661,1.12,1.466,1.191c.452.368.925.713,1.389,1.069-.459.386-.913.782-1.365,1.179a29.048,29.048,0,0,0-2.506,2.517,29.183,29.183,0,0,0,3.34-1.2c1.073-.468,2.141-.941,3.167-1.48l1.329-.7-1.175-1.26c-.291-.312-.6-.6-.9-.906,1.139-.686,2.265-1.391,3.362-2.143Z" fill="#e89e0a"/>
          <path id="Path_3815" data-name="Path 3815" d="M645.867,102.589c-.563-.495-1.126-.986-1.7-1.467.577-.442,1.164-.871,1.727-1.328l1.821-1.48-2.063-1.393c-1.426-.962-2.888-1.864-4.368-2.738.629-.735,1.276-1.451,1.878-2.214l.992-1.258L643.1,90c-.977-.66-1.971-1.3-2.994-1.912a33.091,33.091,0,0,0-3.181-1.7,32.9,32.9,0,0,0,2.105,2.927c.417.528.86,1.025,1.294,1.533-1.018.831-2.033,1.664-3,2.545l-1.592,1.451,1.912,1.311c1.363.935,2.764,1.812,4.179,2.663-.37.377-.755.739-1.116,1.127l-1.462,1.566,1.652.867c1.275.67,2.6,1.258,3.936,1.839a35.975,35.975,0,0,0,4.152,1.5A36.209,36.209,0,0,0,645.867,102.589Z" fill="#e89e0a"/>
        </g>
      </g>
    </g>
  </g>
</svg>
