<svg xmlns="http://www.w3.org/2000/svg" xmlns:xlink="http://www.w3.org/1999/xlink" width="84.06" height="79.629" viewBox="0 0 84.06 79.629">
  <defs>
    <clipPath id="clip-path">
      <path id="Path_3701" data-name="Path 3701" d="M467.785,154.139a24.364,24.364,0,0,0,14.589-23.607c-.707-9.856-1.785-18.023-7.064-26.375-5.152-8.15-7.673-14.438-12.392-17.406-3.628-2.282-13.073-2.981-20.252-2.2-4.262.462-4.96-.525-12.782,2.2a54.625,54.625,0,0,0-9.509,4.444,52.915,52.915,0,0,0-13.431,10.528,35.83,35.83,0,0,0-6.994,33.718,65.928,65.928,0,0,0,4.591,10.329c2.229,4.287,4.6,8.654,8.3,11.77,4.213,3.552,9.755,5.133,15.219,5.848a59.365,59.365,0,0,0,39.472-8.875" fill="none"/>
    </clipPath>
    <clipPath id="clip-path-2">
      <path id="Path_3695" data-name="Path 3695" d="M442.882,158.818a26.808,26.808,0,0,1,4.579-15.769s13.8,5.118,21.457-6.456c0,0,3.895-4.864,1.569-14.007,0,0-2.7-13.253-4.7-16.285s-13.916-9.956-25.769.473-9.263,43.846-8.288,45.921C431.728,152.7,441.394,161.3,442.882,158.818Z" fill="none"/>
    </clipPath>
    <radialGradient id="radial-gradient" cx="0.5" cy="0.5" r="2.361" gradientTransform="translate(-1.473 0.111) scale(0.162 0.391)" gradientUnits="objectBoundingBox">
      <stop offset="0" stop-color="#b34130" stop-opacity="0.937"/>
      <stop offset="0.637" stop-color="#ffbfad" stop-opacity="0"/>
    </radialGradient>
    <radialGradient id="radial-gradient-2" cx="0.5" cy="0.5" r="2.78" gradientTransform="translate(-2.234 0.054) scale(0.138 0.332)" xlink:href="#radial-gradient"/>
  </defs>
  <g id="Icon" transform="translate(-398.369 -84.243)">
    <g id="Group_272" data-name="Group 272">
      <path id="Path_3668" data-name="Path 3668" d="M467.785,154.139a23.71,23.71,0,0,0-3.219-44.89c-5.4-1.373-11.432-.9-16.15-3.871-3.628-2.282-5.818-6.2-8.27-9.717s-5.713-6.988-9.971-7.484c-3.457-.4-6.8,1.259-9.8,3.018a52.915,52.915,0,0,0-13.431,10.528,35.83,35.83,0,0,0-6.994,33.718,65.928,65.928,0,0,0,4.591,10.329c2.229,4.287,4.6,8.654,8.3,11.77,4.213,3.552,9.755,5.133,15.219,5.848a59.365,59.365,0,0,0,39.472-8.875" fill="#fff"/>
      <g id="Group_271" data-name="Group 271">
        <g id="Group_270" data-name="Group 270" clip-path="url(#clip-path)">
          <g id="Group_269" data-name="Group 269">
            <g id="Group_260" data-name="Group 260">
              <path id="Path_3669" data-name="Path 3669" d="M435.734,162.739s2.821,2.926,8.6,1.794,6.757.24,8.485-2.617,1.551-8.246-3.3-12.974-13.033-1.662-17.692,1.515S435.734,162.739,435.734,162.739Z" fill="#e89e0a"/>
              <path id="Path_3670" data-name="Path 3670" d="M442.882,158.818a27.467,27.467,0,0,1,2.365-12.329s1.628,4.766,4.07,7.322S446.678,160.053,442.882,158.818Z" fill="#2d1f04"/>
              <g id="Group_259" data-name="Group 259">
                <path id="Path_3671" data-name="Path 3671" d="M437.336,158.293a13.669,13.669,0,0,0-.878,1.914,4.828,4.828,0,0,0-.228.956c-.065.336-.058.683-.1,1.089a2.078,2.078,0,0,1-.512-1.074,2.425,2.425,0,0,1,.1-1.218,2.8,2.8,0,0,1,.622-1.034A2.291,2.291,0,0,1,437.336,158.293Z" fill="#a06600"/>
                <path id="Path_3672" data-name="Path 3672" d="M451.993,162a22.648,22.648,0,0,0-1.1-2,6.577,6.577,0,0,0-.656-.852c-.237-.287-.529-.515-.832-.823a2.273,2.273,0,0,1,1.217.346,2.855,2.855,0,0,1,.923.9,3.331,3.331,0,0,1,.481,1.178A2.661,2.661,0,0,1,451.993,162Z" fill="#a06600"/>
                <path id="Path_3673" data-name="Path 3673" d="M453.058,157.943a11.65,11.65,0,0,0-1.136-1.089,2.553,2.553,0,0,0-.589-.347c-.22-.114-.477-.171-.785-.293a1.377,1.377,0,0,1,.9-.311,1.542,1.542,0,0,1,.946.327,1.813,1.813,0,0,1,.586.779A1.553,1.553,0,0,1,453.058,157.943Z" fill="#a06600"/>
                <path id="Path_3674" data-name="Path 3674" d="M439.3,159.23c-.024.409-.041.772-.041,1.132s.006.706.032,1.054.055.7.113,1.054c.038.363.11.725.132,1.14a2.771,2.771,0,0,1-.721-.964,3.333,3.333,0,0,1-.3-1.176,3.248,3.248,0,0,1,.145-1.212A2.243,2.243,0,0,1,439.3,159.23Z" fill="#a06600"/>
                <path id="Path_3675" data-name="Path 3675" d="M441.813,159.878a10.8,10.8,0,0,1,.455,1.986l.152.952.188,1.009a2.015,2.015,0,0,1-.766-.8,3.316,3.316,0,0,1-.344-1.037,3.747,3.747,0,0,1-.015-1.073A2.821,2.821,0,0,1,441.813,159.878Z" fill="#a06600"/>
                <path id="Path_3676" data-name="Path 3676" d="M444.5,159.706a2.942,2.942,0,0,1,.657.817,4.242,4.242,0,0,1,.389.943,3.922,3.922,0,0,1,.145,1.021,2.406,2.406,0,0,1-.219,1.037,9,9,0,0,1-.388-.937c-.109-.3-.207-.6-.29-.913a9.485,9.485,0,0,1-.214-.945A5.241,5.241,0,0,1,444.5,159.706Z" fill="#a06600"/>
                <path id="Path_3677" data-name="Path 3677" d="M447.3,159.408a2.191,2.191,0,0,1,.749.707,3.4,3.4,0,0,1,.44.907,3.036,3.036,0,0,1-.018,2,5.783,5.783,0,0,1-.427-.9c-.108-.294-.214-.58-.3-.872s-.174-.582-.249-.883A9.749,9.749,0,0,1,447.3,159.408Z" fill="#a06600"/>
                <path id="Path_3678" data-name="Path 3678" d="M446.912,149.329a.788.788,0,0,1,.132-.588,1.051,1.051,0,0,1,.439-.371.961.961,0,0,1,1.1.174,2.953,2.953,0,0,1-.422.34,2.6,2.6,0,0,1-.353.2,2.884,2.884,0,0,1-.376.134C447.287,149.253,447.134,149.289,446.912,149.329Z" fill="#a06600"/>
                <path id="Path_3679" data-name="Path 3679" d="M447.682,150.709a.98.98,0,0,1,.322-.662,1.5,1.5,0,0,1,.622-.353,1.576,1.576,0,0,1,.7-.039,1.3,1.3,0,0,1,.649.306,3.129,3.129,0,0,1-.6.306,5.354,5.354,0,0,1-.533.177c-.172.051-.343.09-.527.131Z" fill="#a06600"/>
                <path id="Path_3680" data-name="Path 3680" d="M448.6,152.275a1.383,1.383,0,0,1,.443-.673,1.822,1.822,0,0,1,.7-.374,1.471,1.471,0,0,1,1.515.37c-.275.1-.493.142-.7.212l-.6.169c-.2.056-.4.109-.62.162A6.644,6.644,0,0,1,448.6,152.275Z" fill="#a06600"/>
                <path id="Path_3681" data-name="Path 3681" d="M449.846,153.872a.919.919,0,0,1,.382-.567,1.4,1.4,0,0,1,.6-.244,1.436,1.436,0,0,1,.632.044,1.184,1.184,0,0,1,.561.358,2.413,2.413,0,0,1-.573.256,3.225,3.225,0,0,1-.5.113,3.993,3.993,0,0,1-.5.044C450.273,153.88,450.092,153.876,449.846,153.872Z" fill="#a06600"/>
              </g>
            </g>
            <path id="Path_3682" data-name="Path 3682" d="M442.882,158.818a26.808,26.808,0,0,1,4.579-15.769s13.8,5.118,21.457-6.456c0,0,3.895-4.864,1.569-14.007,0,0-2.7-13.253-4.7-16.285s-13.916-9.956-25.769.473-9.263,43.846-8.288,45.921C431.728,152.7,441.394,161.3,442.882,158.818Z" fill="#ffcdbd"/>
            <g id="Group_261" data-name="Group 261">
              <path id="Path_3683" data-name="Path 3683" d="M413.469,183.12s-10.86-2.336-15.883-9.793,16.636-77.58,41.578-84.812,29.8,10.117,29.8,10.117,3.509,10.282,6.344,11.773c0,0-1.78,1.338-7.338,1.425l-1.083-3.818-.646,4.036a42.7,42.7,0,0,1-17.749-.462s.749-5.39.217-8.353c0,0-2.157,8.626-3.518,9.415l-3.591-.082s-12.209,27.447-6.23,46.338c0,0,3.678,9.851,7.266,14.082C442.638,172.986,430.563,183.638,413.469,183.12Z" fill="#0b1838"/>
              <path id="Path_3684" data-name="Path 3684" d="M401.569,172.314c.276-2.825.719-5.63,1.186-8.431q.747-4.192,1.7-8.348a161.269,161.269,0,0,1,4.688-16.384,122.614,122.614,0,0,1,6.723-15.667q1.994-3.772,4.3-7.361a75.184,75.184,0,0,1,5.108-6.814c-1.7,2.271-3.314,4.6-4.784,7.019s-2.837,4.9-4.094,7.429c-1.23,2.546-2.438,5.1-3.515,7.719s-2.084,5.258-3.006,7.932q-1.408,4-2.617,8.073c-.808,2.712-1.519,5.453-2.227,8.194s-1.327,5.506-1.9,8.28Q402.24,168.111,401.569,172.314Z" fill="#1e3f82"/>
              <path id="Path_3685" data-name="Path 3685" d="M412.2,155.472a68.234,68.234,0,0,1,1.432-9.033,81.243,81.243,0,0,1,2.5-8.813,64.834,64.834,0,0,1,3.671-8.405,41.739,41.739,0,0,1,5.2-7.532c-.832,1.282-1.762,2.48-2.479,3.824-.812,1.28-1.464,2.652-2.175,3.986l-.951,2.062c-.155.345-.327.682-.468,1.034l-.428,1.051c-.275.706-.6,1.39-.846,2.107l-.783,2.132c-1,2.859-1.871,5.764-2.649,8.7-.384,1.468-.752,2.942-1.084,4.424C412.783,152.484,412.491,153.976,412.2,155.472Z" fill="#1e3f82"/>
              <path id="Path_3686" data-name="Path 3686" d="M455.907,90.616a11.529,11.529,0,0,1,5.769,2.577,6.913,6.913,0,0,1,.606.529,6.793,6.793,0,0,1,.568.57l.535.6.486.642a6.817,6.817,0,0,1,.45.666c.14.228.291.453.424.683.257.465.523.925.77,1.395.987,1.882,1.895,3.8,2.781,5.723.443.962.887,1.923,1.376,2.859a10.577,10.577,0,0,0,1.749,2.625,9.933,9.933,0,0,1-1.917-2.533c-.527-.924-1-1.873-1.478-2.82-.944-1.9-1.846-3.813-2.855-5.671-.241-.47-.5-.93-.751-1.395-.129-.23-.271-.447-.406-.672a6.46,6.46,0,0,0-.431-.653,13.068,13.068,0,0,0-2.1-2.321,12.154,12.154,0,0,0-2.6-1.752A11.445,11.445,0,0,0,455.907,90.616Z" fill="#1e3f82"/>
              <path id="Path_3687" data-name="Path 3687" d="M450.037,92.087a7.983,7.983,0,0,0-2.269,1.27,9.392,9.392,0,0,0-1.823,1.833,12.612,12.612,0,0,0-2.215,4.642,33.918,33.918,0,0,0-.763,5.16l-.306,2.61-.187,1.3c-.033.217-.066.433-.107.65l-.037.161c-.014.03,0,.048-.042.09-.046,0-.031-.039-.038-.047v-.042c0-.111.006-.219.013-.329,0,.11.005.219.016.327l.006.04c0,.014.015.025-.008.016-.008,0,.009-.042.011-.064l.021-.162c.025-.216.045-.434.064-.652l.1-1.309.2-2.618c.031-.437.063-.873.1-1.309s.069-.872.13-1.311.094-.879.178-1.313l.276-1.3A12.436,12.436,0,0,1,445.711,95,8.6,8.6,0,0,1,450.037,92.087Z" fill="#1e3f82"/>
              <path id="Path_3688" data-name="Path 3688" d="M454.752,93.315a10.087,10.087,0,0,1,1.983,3.418,26.115,26.115,0,0,1,1.126,3.809c.152.644.26,1.3.385,1.945.1.653.207,1.307.289,1.959l.261,1.958c.074.655.161,1.308.222,1.966-.148-.642-.273-1.289-.41-1.935l-.37-1.943-.356-1.939c-.135-.642-.245-1.29-.4-1.927a37.121,37.121,0,0,0-1.026-3.79,18.592,18.592,0,0,0-.714-1.828A7.4,7.4,0,0,0,454.752,93.315Z" fill="#1e3f82"/>
              <path id="Path_3689" data-name="Path 3689" d="M431.769,126.358c-.725,2.523-1.293,5.078-1.788,7.641a73.711,73.711,0,0,0-1.059,7.743,51.615,51.615,0,0,0-.071,7.795q.144,1.944.473,3.874a35.547,35.547,0,0,0,.9,3.816,26.772,26.772,0,0,1-1.273-3.736,32.119,32.119,0,0,1-.706-3.9,39.042,39.042,0,0,1-.244-3.956q0-1.981.145-3.959c.116-1.315.27-2.626.475-3.928s.461-2.6.767-3.877A47.882,47.882,0,0,1,431.769,126.358Z" fill="#1e3f82"/>
            </g>
            <g id="Group_262" data-name="Group 262">
              <path id="Path_3690" data-name="Path 3690" d="M438.958,126.294s-5.737-2.15-6.181-7.513c0,0,.248-3.465,3.433-3.28a3.777,3.777,0,0,1,3.528,3.334Z" fill="#ffcdbd"/>
              <path id="Path_3691" data-name="Path 3691" d="M437.649,118.081a2.35,2.35,0,0,0-1.112-.278.819.819,0,0,0-.674.466,3.926,3.926,0,0,0-.344.974,2.926,2.926,0,0,0-.047.988,4.367,4.367,0,0,0,.268,1,5.991,5.991,0,0,0,.515.961,4.837,4.837,0,0,0,.732.846,2.626,2.626,0,0,0,1.01.607,2,2,0,0,1-1.306-.113,3.836,3.836,0,0,1-1.132-.737,4.559,4.559,0,0,1-.823-1.089,4.137,4.137,0,0,1-.427-1.338,3.356,3.356,0,0,1,.146-1.441,3.551,3.551,0,0,1,.69-1.236c.094-.093.2-.177.3-.26a1.893,1.893,0,0,1,.372-.184,1.4,1.4,0,0,1,.8-.015A1.877,1.877,0,0,1,437.649,118.081Z" fill="#b26356"/>
            </g>
            <g id="Group_263" data-name="Group 263">
              <path id="Path_3692" data-name="Path 3692" d="M449.139,123.716a2.849,2.849,0,0,1,.819-1.534,3.168,3.168,0,0,1,1.6-.873,3.085,3.085,0,0,1,1.818.152,1.624,1.624,0,0,1,.4.192c.127.076.251.156.37.238a3.724,3.724,0,0,1,.605.625c-.305-.007-.566-.067-.83-.1-.132-.008-.26-.02-.385-.035l-.185-.025-.185,0a4.88,4.88,0,0,0-1.364.1,5.2,5.2,0,0,0-1.3.463A15.789,15.789,0,0,0,449.139,123.716Z" fill="#0b1838"/>
              <path id="Path_3693" data-name="Path 3693" d="M464.941,121.433a1.541,1.541,0,0,1,.862-.744,1.853,1.853,0,0,1,1.192-.023,1.785,1.785,0,0,1,.963.707,1.722,1.722,0,0,1,.246.52,1.828,1.828,0,0,1,.042.578,4.418,4.418,0,0,1-.5-.228c-.159-.058-.276-.147-.412-.192a5.208,5.208,0,0,0-.69-.268,5.641,5.641,0,0,0-.726-.183Z" fill="#0b1838"/>
            </g>
            <g id="Group_266" data-name="Group 266">
              <g id="Group_265" data-name="Group 265" clip-path="url(#clip-path-2)">
                <g id="Group_264" data-name="Group 264">
                  <ellipse id="Ellipse_8" data-name="Ellipse 8" cx="23.59" cy="3.825" rx="23.59" ry="3.825" transform="translate(426.366 122.997)" opacity="0.6" fill="url(#radial-gradient)"/>
                  <path id="Path_3694" data-name="Path 3694" d="M489.271,126.822c0,1.6-9.413,2.894-21.025,2.894s-21.027-1.3-21.027-2.894,9.414-2.895,21.027-2.895S489.271,125.223,489.271,126.822Z" opacity="0.6" fill="url(#radial-gradient-2)"/>
                </g>
              </g>
            </g>
            <g id="Group_268" data-name="Group 268">
              <g id="Group_267" data-name="Group 267">
                <path id="Path_3697" data-name="Path 3697" d="M446.242,121.314s-.889.284-.564-.552a8.3,8.3,0,0,1,5.372-3.323c2.3-.145-.874,1.364-2.023,1.966A22.535,22.535,0,0,0,446.242,121.314Z" fill="#0b1838"/>
                <path id="Path_3698" data-name="Path 3698" d="M468.455,118.447s.612-.02.3-.637a3.971,3.971,0,0,0-3.9-1.254c-1.517.554.733.907,1.555,1.081A10.64,10.64,0,0,1,468.455,118.447Z" fill="#0b1838"/>
              </g>
              <path id="Path_3699" data-name="Path 3699" d="M455.681,133.818a4.812,4.812,0,0,1,1.511-1.406,4.718,4.718,0,0,1,2.022-.7,2.97,2.97,0,0,1,2.186.617,2.679,2.679,0,0,1,.955,1.9,4.891,4.891,0,0,0-1.458-1.133,3.1,3.1,0,0,0-1.581-.223,9.244,9.244,0,0,0-1.749.366C456.963,133.423,456.351,133.628,455.681,133.818Z" fill="#0b1838"/>
              <path id="Path_3700" data-name="Path 3700" d="M461.2,120.965s.023-1.444-.708-.152-1.918,3.863-1.876,5.125,1.149,4.243,2.713,2.96.985-2.9.542-4.421A25.276,25.276,0,0,1,461.2,120.965Z" fill="#ff9c85"/>
            </g>
          </g>
        </g>
      </g>
    </g>
  </g>
</svg>
