<svg xmlns="http://www.w3.org/2000/svg" xmlns:xlink="http://www.w3.org/1999/xlink" width="84.06" height="79.629" viewBox="0 0 84.06 79.629">
  <defs>
    <clipPath id="clip-path">
      <path id="Path_3746" data-name="Path 3746" d="M574.295,154.139a24.364,24.364,0,0,0,14.589-23.607c-.706-9.856-1.784-18.023-7.064-26.375-5.153-8.15-7.673-14.438-12.392-17.406-3.628-2.282-13.073-2.981-20.253-2.2-4.261.462-4.96-.525-12.78,2.2a54.591,54.591,0,0,0-9.509,4.444,52.92,52.92,0,0,0-13.432,10.528,35.836,35.836,0,0,0-6.995,33.718,66.027,66.027,0,0,0,4.592,10.329c2.229,4.287,4.6,8.654,8.3,11.77,4.212,3.552,9.755,5.133,15.219,5.848a59.366,59.366,0,0,0,39.471-8.875" fill="none"/>
    </clipPath>
    <clipPath id="clip-path-2">
      <path id="Path_3729" data-name="Path 3729" d="M549.392,158.818a26.8,26.8,0,0,1,4.58-15.769s13.8,5.118,21.456-6.456c0,0,3.9-4.864,1.569-14.007,0,0-2.7-13.253-4.7-16.285s-13.916-9.956-25.768.473-9.263,43.846-8.288,45.921C538.238,152.7,547.9,161.3,549.392,158.818Z" fill="none"/>
    </clipPath>
    <radialGradient id="radial-gradient" cx="0.5" cy="0.5" r="2.361" gradientTransform="translate(-2.622 0.111) scale(0.162 0.391)" gradientUnits="objectBoundingBox">
      <stop offset="0" stop-color="#b34130" stop-opacity="0.937"/>
      <stop offset="0.637" stop-color="#ffbfad" stop-opacity="0"/>
    </radialGradient>
    <radialGradient id="radial-gradient-2" cx="0.5" cy="0.5" r="2.78" gradientTransform="translate(-3.69 0.053) scale(0.138 0.332)" xlink:href="#radial-gradient"/>
  </defs>
  <g id="Icon" transform="translate(-577.88 44.757)">
    <g id="Group_291" data-name="Group 291" transform="translate(73 -129)">
      <path id="Path_3702" data-name="Path 3702" d="M574.295,154.139a23.71,23.71,0,0,0-3.219-44.89c-5.4-1.373-11.432-.9-16.15-3.871-3.629-2.282-5.817-6.2-8.27-9.717s-5.712-6.988-9.971-7.484c-3.457-.4-6.795,1.259-9.8,3.018a52.92,52.92,0,0,0-13.432,10.528,35.836,35.836,0,0,0-6.995,33.718,66.027,66.027,0,0,0,4.592,10.329c2.229,4.287,4.6,8.654,8.3,11.77,4.212,3.552,9.755,5.133,15.219,5.848a59.366,59.366,0,0,0,39.471-8.875" fill="#fff"/>
      <g id="Group_290" data-name="Group 290">
        <g id="Group_289" data-name="Group 289" clip-path="url(#clip-path)">
          <g id="Group_288" data-name="Group 288">
            <g id="Group_274" data-name="Group 274">
              <path id="Path_3703" data-name="Path 3703" d="M542.245,162.739s2.82,2.926,8.6,1.794,6.756.24,8.484-2.617,1.551-8.246-3.3-12.974S543,147.28,538.337,150.457,542.245,162.739,542.245,162.739Z" fill="#e89e0a"/>
              <path id="Path_3704" data-name="Path 3704" d="M549.392,158.818a27.467,27.467,0,0,1,2.365-12.329s1.629,4.766,4.07,7.322S553.188,160.053,549.392,158.818Z" fill="#2d1f04"/>
              <g id="Group_273" data-name="Group 273">
                <path id="Path_3705" data-name="Path 3705" d="M543.847,158.293a13.584,13.584,0,0,0-.88,1.914,4.9,4.9,0,0,0-.227.956c-.066.336-.058.683-.1,1.089a2.087,2.087,0,0,1-.513-1.074,2.427,2.427,0,0,1,.1-1.218,2.785,2.785,0,0,1,.622-1.034A2.274,2.274,0,0,1,543.847,158.293Z" fill="#a06600"/>
                <path id="Path_3706" data-name="Path 3706" d="M558.5,162a22.64,22.64,0,0,0-1.1-2,6.667,6.667,0,0,0-.656-.852c-.237-.287-.528-.515-.832-.823a2.276,2.276,0,0,1,1.217.346,2.865,2.865,0,0,1,.923.9,3.349,3.349,0,0,1,.481,1.178A2.673,2.673,0,0,1,558.5,162Z" fill="#a06600"/>
                <path id="Path_3707" data-name="Path 3707" d="M559.568,157.943a11.762,11.762,0,0,0-1.136-1.089,2.553,2.553,0,0,0-.589-.347c-.22-.114-.476-.171-.785-.293a1.377,1.377,0,0,1,.9-.311,1.538,1.538,0,0,1,.946.327,1.821,1.821,0,0,1,.586.779A1.545,1.545,0,0,1,559.568,157.943Z" fill="#a06600"/>
                <path id="Path_3708" data-name="Path 3708" d="M545.815,159.23c-.024.409-.04.772-.04,1.132s.005.706.031,1.054.056.7.112,1.054c.04.363.111.725.132,1.14a2.781,2.781,0,0,1-.72-.964,3.333,3.333,0,0,1-.3-1.176,3.267,3.267,0,0,1,.144-1.212A2.245,2.245,0,0,1,545.815,159.23Z" fill="#a06600"/>
                <path id="Path_3709" data-name="Path 3709" d="M548.323,159.878a10.975,10.975,0,0,1,.456,1.986l.151.952.189,1.009a2.01,2.01,0,0,1-.767-.8,3.345,3.345,0,0,1-.345-1.037,3.82,3.82,0,0,1-.014-1.073A2.785,2.785,0,0,1,548.323,159.878Z" fill="#a06600"/>
                <path id="Path_3710" data-name="Path 3710" d="M551.013,159.706a2.938,2.938,0,0,1,.656.817,4.3,4.3,0,0,1,.391.943,3.96,3.96,0,0,1,.144,1.021,2.391,2.391,0,0,1-.219,1.037,8.774,8.774,0,0,1-.387-.937c-.11-.3-.208-.6-.291-.913a9.476,9.476,0,0,1-.214-.945A5.092,5.092,0,0,1,551.013,159.706Z" fill="#a06600"/>
                <path id="Path_3711" data-name="Path 3711" d="M553.811,159.408a2.212,2.212,0,0,1,.75.707,3.456,3.456,0,0,1,.439.907,3.036,3.036,0,0,1-.018,2,5.7,5.7,0,0,1-.427-.9c-.107-.294-.215-.58-.3-.872s-.174-.582-.25-.883S553.863,159.761,553.811,159.408Z" fill="#a06600"/>
                <path id="Path_3712" data-name="Path 3712" d="M553.422,149.329a.784.784,0,0,1,.132-.588,1.048,1.048,0,0,1,.44-.371.957.957,0,0,1,1.1.174,2.9,2.9,0,0,1-.422.34,2.534,2.534,0,0,1-.352.2,2.884,2.884,0,0,1-.376.134C553.8,149.253,553.644,149.289,553.422,149.329Z" fill="#a06600"/>
                <path id="Path_3713" data-name="Path 3713" d="M554.192,150.709a.98.98,0,0,1,.322-.662,1.5,1.5,0,0,1,.623-.353,1.568,1.568,0,0,1,.7-.039,1.3,1.3,0,0,1,.65.306,3.078,3.078,0,0,1-.6.306,5.177,5.177,0,0,1-.532.177c-.172.051-.343.09-.526.131Z" fill="#a06600"/>
                <path id="Path_3714" data-name="Path 3714" d="M555.106,152.275a1.388,1.388,0,0,1,.442-.673,1.83,1.83,0,0,1,.7-.374,1.472,1.472,0,0,1,1.516.37c-.275.1-.493.142-.7.212l-.6.169c-.2.056-.4.109-.62.162A6.5,6.5,0,0,1,555.106,152.275Z" fill="#a06600"/>
                <path id="Path_3715" data-name="Path 3715" d="M556.357,153.872a.918.918,0,0,1,.381-.567,1.4,1.4,0,0,1,.6-.244,1.439,1.439,0,0,1,.633.044,1.184,1.184,0,0,1,.561.358,2.4,2.4,0,0,1-.574.256,3.164,3.164,0,0,1-.5.113,4.027,4.027,0,0,1-.5.044C556.783,153.88,556.6,153.876,556.357,153.872Z" fill="#a06600"/>
              </g>
            </g>
            <path id="Path_3716" data-name="Path 3716" d="M549.392,158.818a26.8,26.8,0,0,1,4.58-15.769s13.8,5.118,21.456-6.456c0,0,3.9-4.864,1.569-14.007,0,0-2.7-13.253-4.7-16.285s-13.916-9.956-25.768.473-9.263,43.846-8.288,45.921C538.238,152.7,547.9,161.3,549.392,158.818Z" fill="#ffcdbd"/>
            <g id="Group_275" data-name="Group 275">
              <path id="Path_3717" data-name="Path 3717" d="M519.98,183.12s-10.861-2.336-15.883-9.793,16.635-77.58,41.576-84.812,29.8,10.117,29.8,10.117,3.509,10.282,6.344,11.773c0,0-1.78,1.338-7.337,1.425l-1.084-3.818-.647,4.036A42.689,42.689,0,0,1,555,111.586s.748-5.39.217-8.353c0,0-2.156,8.626-3.517,9.415l-3.592-.082s-12.209,27.447-6.23,46.338c0,0,3.679,9.851,7.266,14.082C549.148,172.986,537.073,183.638,519.98,183.12Z" fill="#0b1838"/>
              <path id="Path_3718" data-name="Path 3718" d="M508.08,172.314c.275-2.825.717-5.63,1.185-8.431q.747-4.192,1.694-8.348a161.531,161.531,0,0,1,4.69-16.384,122.617,122.617,0,0,1,6.722-15.667q2-3.772,4.305-7.361a75.173,75.173,0,0,1,5.108-6.814c-1.7,2.271-3.313,4.6-4.785,7.019s-2.836,4.9-4.093,7.429c-1.23,2.546-2.439,5.1-3.515,7.719s-2.084,5.258-3.006,7.932q-1.407,4-2.616,8.073c-.81,2.712-1.52,5.453-2.228,8.194s-1.328,5.506-1.9,8.28Q508.749,168.111,508.08,172.314Z" fill="#1e3f82"/>
              <path id="Path_3719" data-name="Path 3719" d="M518.711,155.472a68.4,68.4,0,0,1,1.433-9.033,81.021,81.021,0,0,1,2.5-8.813,64.7,64.7,0,0,1,3.67-8.405,41.737,41.737,0,0,1,5.2-7.532c-.832,1.282-1.763,2.48-2.479,3.824-.812,1.28-1.464,2.652-2.174,3.986l-.952,2.062c-.156.345-.327.682-.468,1.034l-.427,1.051c-.276.706-.6,1.39-.847,2.107l-.783,2.132c-1,2.859-1.871,5.764-2.649,8.7-.384,1.468-.752,2.942-1.084,4.424C519.292,152.484,519,153.976,518.711,155.472Z" fill="#1e3f82"/>
              <path id="Path_3720" data-name="Path 3720" d="M562.416,90.616a11.532,11.532,0,0,1,5.771,2.577,6.9,6.9,0,0,1,.6.529,6.64,6.64,0,0,1,.568.57l.536.6.484.642a6.656,6.656,0,0,1,.451.666c.141.228.292.453.423.683.258.465.524.925.772,1.395.987,1.882,1.893,3.8,2.78,5.723.443.962.887,1.923,1.376,2.859a10.6,10.6,0,0,0,1.749,2.625,9.932,9.932,0,0,1-1.917-2.533c-.526-.924-1-1.873-1.478-2.82-.944-1.9-1.846-3.813-2.855-5.671-.241-.47-.5-.93-.751-1.395-.129-.23-.271-.447-.406-.672a6.459,6.459,0,0,0-.432-.653,13.061,13.061,0,0,0-2.1-2.321,12.18,12.18,0,0,0-2.6-1.752A11.44,11.44,0,0,0,562.416,90.616Z" fill="#1e3f82"/>
              <path id="Path_3721" data-name="Path 3721" d="M556.546,92.087a7.977,7.977,0,0,0-2.268,1.27,9.364,9.364,0,0,0-1.823,1.833,12.6,12.6,0,0,0-2.215,4.642,33.93,33.93,0,0,0-.763,5.16l-.307,2.61-.185,1.3c-.033.217-.068.433-.109.65l-.037.161c-.012.03,0,.048-.042.09-.046,0-.03-.039-.036-.047l0-.042c0-.111.006-.219.014-.329,0,.11.005.219.016.327l0,.04c0,.014.017.025-.006.016-.008,0,.008-.042.009-.064l.022-.162c.026-.216.046-.434.063-.652l.1-1.309.2-2.618c.03-.437.062-.873.1-1.309s.069-.872.131-1.311.092-.879.177-1.313l.276-1.3A12.436,12.436,0,0,1,552.221,95,8.6,8.6,0,0,1,556.546,92.087Z" fill="#1e3f82"/>
              <path id="Path_3722" data-name="Path 3722" d="M561.262,93.315a10.09,10.09,0,0,1,1.984,3.418,26.233,26.233,0,0,1,1.125,3.809c.153.644.259,1.3.384,1.945.1.653.208,1.307.29,1.959l.262,1.958c.072.655.159,1.308.221,1.966-.149-.642-.273-1.289-.41-1.935l-.369-1.943-.357-1.939c-.136-.642-.244-1.29-.4-1.927a37.367,37.367,0,0,0-1.026-3.79,18.108,18.108,0,0,0-.715-1.828A7.364,7.364,0,0,0,561.262,93.315Z" fill="#1e3f82"/>
              <path id="Path_3723" data-name="Path 3723" d="M538.279,126.358c-.725,2.523-1.293,5.078-1.787,7.641a73.176,73.176,0,0,0-1.059,7.743,51.743,51.743,0,0,0-.072,7.795q.144,1.944.473,3.874a35.085,35.085,0,0,0,.9,3.816,26.916,26.916,0,0,1-1.274-3.736,32.306,32.306,0,0,1-.7-3.9,39.024,39.024,0,0,1-.244-3.956q-.006-1.981.145-3.959c.117-1.315.27-2.626.475-3.928s.461-2.6.767-3.877A47.888,47.888,0,0,1,538.279,126.358Z" fill="#1e3f82"/>
            </g>
            <g id="Group_276" data-name="Group 276">
              <path id="Path_3724" data-name="Path 3724" d="M545.467,126.294s-5.735-2.15-6.179-7.513c0,0,.248-3.465,3.433-3.28a3.776,3.776,0,0,1,3.527,3.334Z" fill="#ffcdbd"/>
              <path id="Path_3725" data-name="Path 3725" d="M544.159,118.081a2.353,2.353,0,0,0-1.113-.278.817.817,0,0,0-.673.466,3.969,3.969,0,0,0-.344.974,2.9,2.9,0,0,0-.047.988,4.367,4.367,0,0,0,.268,1,6.15,6.15,0,0,0,.515.961,4.837,4.837,0,0,0,.732.846,2.63,2.63,0,0,0,1.009.607,2,2,0,0,1-1.3-.113,3.835,3.835,0,0,1-1.132-.737,4.537,4.537,0,0,1-.824-1.089,4.162,4.162,0,0,1-.427-1.338,3.371,3.371,0,0,1,.145-1.441,3.556,3.556,0,0,1,.692-1.236c.093-.093.2-.177.3-.26a1.876,1.876,0,0,1,.373-.184,1.4,1.4,0,0,1,.8-.015A1.876,1.876,0,0,1,544.159,118.081Z" fill="#b26356"/>
            </g>
            <g id="Group_277" data-name="Group 277">
              <path id="Path_3726" data-name="Path 3726" d="M555.649,123.716a2.855,2.855,0,0,1,.818-1.534,3.175,3.175,0,0,1,1.6-.873,3.09,3.09,0,0,1,1.819.152,1.633,1.633,0,0,1,.4.192c.128.076.251.156.37.238a3.8,3.8,0,0,1,.605.625c-.3-.007-.566-.067-.829-.1-.133-.008-.262-.02-.387-.035l-.184-.025-.185,0a4.883,4.883,0,0,0-1.364.1,5.191,5.191,0,0,0-1.3.463C556.581,123.136,556.142,123.4,555.649,123.716Z" fill="#0b1838"/>
              <path id="Path_3727" data-name="Path 3727" d="M571.451,121.433a1.538,1.538,0,0,1,.862-.744,1.851,1.851,0,0,1,1.191-.023,1.794,1.794,0,0,1,.965.707,1.717,1.717,0,0,1,.244.52,1.771,1.771,0,0,1,.042.578,4.584,4.584,0,0,1-.5-.228c-.158-.058-.274-.147-.411-.192a5.157,5.157,0,0,0-.69-.268,5.6,5.6,0,0,0-.726-.183Z" fill="#0b1838"/>
            </g>
            <g id="Group_280" data-name="Group 280">
              <g id="Group_279" data-name="Group 279" clip-path="url(#clip-path-2)">
                <g id="Group_278" data-name="Group 278">
                  <path id="Path_3728" data-name="Path 3728" d="M580.056,126.822c0,2.112-10.561,3.824-23.591,3.824s-23.59-1.712-23.59-3.824S543.437,123,556.465,123,580.056,124.709,580.056,126.822Z" opacity="0.6" fill="url(#radial-gradient)"/>
                  <ellipse id="Ellipse_9" data-name="Ellipse 9" cx="21.026" cy="2.895" rx="21.026" ry="2.895" transform="translate(553.729 123.927)" opacity="0.6" fill="url(#radial-gradient-2)"/>
                </g>
              </g>
            </g>
            <g id="Group_282" data-name="Group 282">
              <g id="Group_281" data-name="Group 281">
                <path id="Path_3730" data-name="Path 3730" d="M552.752,121.314s-.889.284-.563-.552a8.287,8.287,0,0,1,5.371-3.323c2.3-.145-.873,1.364-2.023,1.966A22.534,22.534,0,0,0,552.752,121.314Z" fill="#0b1838"/>
                <path id="Path_3731" data-name="Path 3731" d="M574.964,118.447s.614-.02.3-.637a3.975,3.975,0,0,0-3.9-1.254c-1.516.554.734.907,1.555,1.081A10.619,10.619,0,0,1,574.964,118.447Z" fill="#0b1838"/>
              </g>
              <path id="Path_3732" data-name="Path 3732" d="M567.712,120.965s.024-1.444-.708-.152-1.918,3.863-1.876,5.125,1.151,4.243,2.713,2.96.986-2.9.542-4.421A25.446,25.446,0,0,1,567.712,120.965Z" fill="#ff9c85"/>
            </g>
            <g id="Group_287" data-name="Group 287">
              <g id="Group_283" data-name="Group 283">
                <path id="Path_3733" data-name="Path 3733" d="M518.36,147.2a8.222,8.222,0,0,0-4.312,6.692c-.5,4.991,1.748,8.243,1.438,9.907s-1.293,7.052-1.006,8.762,1.581,6.34,4.455,7.124,5.748,2.137,7.113,4.986,3.737,6.056,5.389,6.625,7.976,7.124,8.766,7.48,6.826,4.274,17.244,0,2.946-11.469,9.484-17.524.743-7.884.743-13.2a32.951,32.951,0,0,1,.479-7.124s-8.814-4.084-15.233-2.564c0,0-.862-.095-.766,3.229a9.234,9.234,0,0,1-1.532,5.984,6.673,6.673,0,0,0-.671,3.23s-3.569-3.728-3.641-7.5-6.467-6.767-7.544-9.047S527.772,142.285,518.36,147.2Z" fill="#fb2"/>
                <path id="Path_3734" data-name="Path 3734" d="M552.557,158.55a1.553,1.553,0,0,0-.226.361,3.6,3.6,0,0,0-.258.8,9.64,9.64,0,0,0-.2,1.662,13.8,13.8,0,0,1-.422,3.155,7.586,7.586,0,0,1-.549,1.434,13.94,13.94,0,0,1-.82,1.351,5.271,5.271,0,0,0-.635,1.737c0,.021-.007.041-.011.061a17.315,17.315,0,0,1-1.7-2.857,8.448,8.448,0,0,1-.705-2.268c-.035-.192-.041-.384-.066-.576l-.031-.337a2.582,2.582,0,0,0-.051-.375,4.9,4.9,0,0,0-.484-1.383,8.629,8.629,0,0,0-1.7-2.142,20.411,20.411,0,0,0-2.014-1.676c-.686-.525-1.4-1.005-2.074-1.52-.34-.255-.679-.513-.995-.794a4.619,4.619,0,0,1-.853-.943,4.127,4.127,0,0,0,.673,1.114c.274.338.57.659.875.967.615.61,1.246,1.2,1.871,1.774s1.227,1.175,1.778,1.79a8.538,8.538,0,0,1,1.361,1.965,3.658,3.658,0,0,1,.316,1.049,1.544,1.544,0,0,1,.023.262l.014.3c.016.235.017.473.047.7a9.63,9.63,0,0,0,.768,2.639,13.747,13.747,0,0,0,1.309,2.344,17.469,17.469,0,0,0,1.671,2.1l1.211,1.3-.07-1.788a5.828,5.828,0,0,1,.486-2.844,13.126,13.126,0,0,0,.771-1.513,8.125,8.125,0,0,0,.491-1.67,12.535,12.535,0,0,0,.066-3.368,12.772,12.772,0,0,1-.05-1.611,4.362,4.362,0,0,1,.108-.791,1.491,1.491,0,0,1,.141-.368.435.435,0,0,1,.3-.245A.478.478,0,0,0,552.557,158.55Z" fill="#c1840a"/>
              </g>
              <path id="Path_3735" data-name="Path 3735" d="M553.423,149.409a16.2,16.2,0,0,1,13.617-.463s6.466,2.885,3.285,4.693c0,0-1.705,2.157-11.045,1.208S553.423,149.409,553.423,149.409Z" fill="#2d1f04"/>
              <g id="Group_284" data-name="Group 284">
                <path id="Path_3736" data-name="Path 3736" d="M557.013,147.457s-6.036,1.37-7.691-1.8.326-3.29,1-5.938.033-6.235,4.655-7.543,5.108.068,7.226,1.291,4.335.652,6.366-.981,4.525-2.559,6.366-.575,2.684,7.68-1.091,9.6-10.725,6.385-12.727,6.254S557.013,147.457,557.013,147.457Z" fill="#fff"/>
                <path id="Path_3737" data-name="Path 3737" d="M557.286,152.9a9.936,9.936,0,0,0,0-9.664c-2.841-5.145-5.1-4.1-4.919-6.512,0,0,.1-1.471,2.615-.316s5.237,4.1,8.119,2.416,7.051-5.094,9.264-4.569c0,0,1.286.578-1.6,2.416,0,0,4.529-3.733,5.61-2.47s-5.352,4.518-8.183,7.88-3.036,11.555-2.47,13.341C565.726,155.417,557.542,154.839,557.286,152.9Z" fill="#ffcdbd"/>
              </g>
              <g id="Group_286" data-name="Group 286">
                <path id="Path_3738" data-name="Path 3738" d="M553.423,149.409s-1.724-.32-1.868,4.875,0,5.659,2.587,5.814a62.227,62.227,0,0,1,11.712,2.556c2.515.93,5.1-.619,5.1-4.028s.211-5.6.211-5.6-4.834,3.768-13.1.537C552.054,151.216,553.423,149.409,553.423,149.409Z" fill="#e89e0a"/>
                <g id="Group_285" data-name="Group 285">
                  <path id="Path_3739" data-name="Path 3739" d="M554.116,151.754l-.276,1.809c-.087.594-.155,1.185-.211,1.774s-.083,1.18-.092,1.775.035,1.189.055,1.818a5.328,5.328,0,0,1-.593-1.776,7.356,7.356,0,0,1-.058-1.88,8.6,8.6,0,0,1,.375-1.834A6.363,6.363,0,0,1,554.116,151.754Z" fill="#a06600"/>
                  <path id="Path_3740" data-name="Path 3740" d="M568.725,162.269l.26-1.812c.081-.594.144-1.186.2-1.776s.073-1.18.077-1.775-.045-1.189-.071-1.818a5.322,5.322,0,0,1,.609,1.771,7.394,7.394,0,0,1,.075,1.879,8.616,8.616,0,0,1-.361,1.838A6.37,6.37,0,0,1,568.725,162.269Z" fill="#a06600"/>
                  <path id="Path_3741" data-name="Path 3741" d="M556.693,153.576a16.3,16.3,0,0,0-.512,2.926c-.028.484-.065.971-.053,1.464,0,.5.032.992.022,1.523a4.591,4.591,0,0,1-.558-1.465,5.455,5.455,0,0,1-.1-1.578,5.336,5.336,0,0,1,.357-1.542A3.641,3.641,0,0,1,556.693,153.576Z" fill="#a06600"/>
                  <path id="Path_3742" data-name="Path 3742" d="M558.992,154.431a5.609,5.609,0,0,1,.288,1.369,8.127,8.127,0,0,1,.021,1.386,6.967,6.967,0,0,1-.228,1.375,3.866,3.866,0,0,1-.584,1.284c.011-.477.027-.922.051-1.369s.036-.894.072-1.339.073-.894.13-1.344A9.834,9.834,0,0,1,558.992,154.431Z" fill="#a06600"/>
                  <path id="Path_3743" data-name="Path 3743" d="M562,155.342a6.56,6.56,0,0,1,.053,1.338,11.2,11.2,0,0,1-.136,1.308,10.97,10.97,0,0,1-.287,1.282,6.641,6.641,0,0,1-.478,1.252,6.57,6.57,0,0,1-.055-1.339,11.3,11.3,0,0,1,.425-2.59A6.658,6.658,0,0,1,562,155.342Z" fill="#a06600"/>
                  <path id="Path_3744" data-name="Path 3744" d="M564.489,155.571a4.2,4.2,0,0,1,.3,1.413,6.4,6.4,0,0,1-.467,2.828,4.608,4.608,0,0,1-.735,1.244c.047-.49.142-.941.216-1.4l.231-1.348C564.2,157.414,564.313,156.523,564.489,155.571Z" fill="#a06600"/>
                  <path id="Path_3745" data-name="Path 3745" d="M567.076,155.571a5,5,0,0,1,.278,1.59,10.473,10.473,0,0,1-.058,1.6,11.854,11.854,0,0,1-.279,1.565,8.252,8.252,0,0,1-.517,1.519,10.666,10.666,0,0,1-.017-1.6q.038-.787.126-1.563c.057-.518.129-1.032.208-1.548S566.989,156.1,567.076,155.571Z" fill="#a06600"/>
                </g>
              </g>
            </g>
          </g>
        </g>
      </g>
      <path id="Path_3747" data-name="Path 3747" d="M567.594,134.65c-.344,1.5-1.3,2.566-2.138,2.375s-1.239-1.565-.9-3.068,1.3-2.566,2.139-2.375S567.938,133.147,567.594,134.65Z" fill="#0b1838"/>
    </g>
  </g>
</svg>
